<?xml version="1.0" standalone="no"?><!DOCTYPE svg PUBLIC "-//W3C//DTD SVG 1.1//EN" "http://www.w3.org/Graphics/SVG/1.1/DTD/svg11.dtd"><svg t="1527584256310" class="icon" style="" viewBox="0 0 1024 1024" version="1.1" xmlns="http://www.w3.org/2000/svg" p-id="1984" xmlns:xlink="http://www.w3.org/1999/xlink" width="200" height="200"><defs><style type="text/css"></style></defs><path d="M285.696 227.328h453.632c50.176 0 91.136 40.96 91.136 91.136l-67.584 612.352c0 50.176-40.96 91.136-91.136 91.136h-317.44c-50.176 0-91.136-40.96-91.136-91.136L194.56 317.44c0-49.152 40.96-90.112 91.136-90.112z" fill="#2F77F1" p-id="1985"></path><path d="M635.904 71.68l-101.376 98.304v612.352c0 11.264-9.216 20.48-20.48 20.48s-20.48-9.216-20.48-20.48V164.864v-2.048c-1.024-6.144 2.048-12.288 6.144-16.384L606.208 43.008c8.192-8.192 21.504-8.192 29.696 0 8.192 7.168 8.192 20.48 0 28.672z" fill="#AFFCFE" p-id="1986"></path></svg>